<svg xmlns="http://www.w3.org/2000/svg" xmlns:xlink="http://www.w3.org/1999/xlink"><symbol id="adventure" viewBox="0 0 36 30">
<path fill-rule="evenodd" clip-rule="evenodd" d="M35.9414 6.48431C35.8032 6.00477 35.4515 5.73036 35.0825 5.47192C34.6548 5.23283 34.3701 4.86095 33.9003 4.66092C33.6771 4.38312 33.1162 4.21976 32.934 4.05437C32.8437 3.97184 32.8437 4.02415 32.7191 3.95317C32.2943 3.70966 31.9167 3.39382 31.4311 3.24405C30.7561 2.63173 29.9191 2.17291 29.1771 1.62375C28.7383 1.43017 28.338 1.19991 27.9964 0.915658C27.5467 0.695928 27.4222 0.173601 26.8149 0.10432C26.8073 0.0428499 26.7983 -0.0148844 26.7079 0.00345475C26.5625 0.0350389 26.5017 0.147111 26.2785 0.10432C25.471 0.559063 24.9 1.23523 24.1311 1.72462C23.1922 2.29143 22.2548 2.85825 21.3408 3.4468C20.8566 3.70083 20.4995 4.07169 19.9447 4.25712C19.8159 4.50708 19.575 4.65345 19.2996 4.76314C19.0707 4.86571 18.9004 5.28615 18.656 5.06676C17.3071 4.51658 16.2318 3.70695 15.006 3.04198C14.5261 2.58214 13.7118 2.43985 13.1797 2.02891C12.4093 1.81054 11.892 1.3541 10.9258 1.31946C10.2404 1.27972 9.9423 1.60881 9.31519 1.62409C6.60767 3.32318 3.31768 4.47413 0.51369 6.08119C0.367892 6.44967 0.374372 6.96248 0.0831371 7.19478C-0.0608606 8.78349 0.0111383 10.4418 0.0831371 12.0564C0.286174 16.6116 -0.276137 21.8267 0.405332 26.5382C0.466891 27.3244 0.276094 28.349 0.51405 28.9695C0.54213 29.178 0.799525 29.1722 0.942443 29.2731C1.20848 29.1413 1.46299 29.4996 1.47847 29.2731C1.72363 29.5482 1.67179 30.1045 2.33742 29.9829C3.01961 30.0854 3.15965 29.6769 3.51928 29.4752C3.8512 29.248 4.13667 28.979 4.37787 28.6665C5.06258 28.2315 5.57269 27.6331 6.20196 27.1464C6.80639 26.6363 7.39606 26.1116 8.02893 25.6273C8.35148 25.3927 8.69564 25.1767 8.99443 24.9189C9.43002 24.7902 9.61686 24.4241 10.0679 24.31C11.5525 25.0024 12.7974 25.9204 14.255 26.6401C14.9455 27.0344 15.6424 27.4242 16.1864 27.9567C16.6051 28.0688 16.9636 28.2362 17.2595 28.4617C17.5753 28.4363 17.5904 28.6917 17.905 28.6659C17.8557 28.982 18.134 28.9885 18.4396 28.9691C19.2636 28.6642 19.8843 28.1697 20.4815 27.6525C21.1597 27.2133 21.843 26.7779 22.4132 26.2346C23.2516 25.9445 23.635 25.2269 24.4533 24.9189C24.6938 24.6037 25.1751 24.5192 25.4192 24.2088C25.7968 24.0254 26.0416 23.7173 26.4927 23.6015C27.9434 24.4947 28.9511 25.8056 30.251 26.8425C30.6229 27.031 30.746 27.4528 31.2161 27.5512C31.5074 27.8504 31.7129 28.2312 32.1827 28.3616C32.5341 28.6034 32.5434 29.1685 33.149 29.1719C33.5532 29.3638 33.6407 29.8562 34.3301 29.7794C34.7473 29.5889 34.8748 29.2646 34.9741 28.7664C35.0782 28.2447 34.8953 27.6718 34.9741 27.1461C35.1473 26.7695 35.323 26.3945 35.404 25.9306C35.9756 21.4395 35.5865 16.0444 35.8331 11.245C36.0267 10.5638 35.9349 9.64442 35.9414 8.8144C35.945 7.96061 36.0714 7.11429 35.9414 6.48431ZM2.33742 28.3612C2.28234 28.3082 2.41626 28.2315 2.44578 28.2607C2.5005 28.312 2.36802 28.3891 2.33742 28.3612ZM33.6861 11.6502C33.4197 16.1861 33.7206 21.3546 33.4704 26.0318C32.0398 25.4579 31.0023 24.5127 29.7132 23.8033C28.3132 23.2331 27.4837 22.1262 25.9556 21.6766C25.0502 21.8342 24.6185 22.4407 23.9162 22.7899C23.391 23.2735 22.6735 23.5761 22.2001 24.1072C20.8987 24.8724 19.8205 25.8464 18.6563 26.7402C18.2423 26.6594 18.179 26.2454 17.9054 26.0318C17.7099 25.7428 17.2937 25.662 17.1533 25.3234C16.2994 24.9793 15.7375 24.3626 14.7914 24.1076C13.976 23.7285 13.2031 23.3101 12.3211 22.9933C12.0742 22.6876 11.6494 22.547 11.4633 22.1826C11.1278 21.9931 10.8714 21.7282 10.389 21.6769C9.68166 21.6155 9.25111 21.8179 8.88679 22.0818C8.70176 22.4808 8.10633 22.4934 7.92093 22.8924C7.53502 23.1003 7.3417 23.4932 6.95362 23.7024C6.66239 24.0013 6.45755 24.3813 5.98812 24.5127C5.45497 25.1583 4.73282 25.6236 4.26987 26.3347C3.92175 26.5806 3.70756 26.9528 3.4102 27.2463C3.33856 27.482 3.05561 27.5186 2.98325 27.753C2.85725 27.7825 2.67221 28.3273 2.65962 27.8559C2.96993 27.4572 2.53002 26.9009 2.5527 26.437C2.4393 20.1986 2.24094 14.0377 1.90939 8.00442C1.88599 7.67873 2.29134 7.75786 2.44578 7.5996C2.60634 7.48108 2.88461 7.4736 2.98325 7.29531C3.44332 7.15573 3.6892 6.81407 4.16259 6.68774C4.93694 6.26865 5.60329 5.75074 6.41723 5.37139C7.1203 4.88642 8.07717 4.64156 8.77951 4.15558C9.32131 4.09377 9.44658 3.638 10.0683 3.64989C10.4196 3.44137 10.7426 3.205 11.1422 3.04232C12.2297 3.80441 13.467 4.42659 14.5772 5.1683C15.1244 5.56328 15.79 5.84753 16.2951 6.28224C16.9276 6.56242 17.2912 7.09799 18.0126 7.29497C19.0357 7.1795 19.7248 6.74921 20.3738 6.28224C21.0488 5.83802 21.7767 5.44509 22.4143 4.96623C23.8424 4.1875 24.99 3.14149 26.3861 2.33321C26.4653 2.23845 26.5805 2.17868 26.709 2.12944C27.3541 2.63512 27.9089 3.22537 28.7477 3.54767C29.4684 3.98305 30.1772 4.42761 31.003 4.7628C31.3911 5.27392 31.9653 5.61014 32.506 5.97862C32.961 6.39329 33.4337 6.78996 34.009 7.09256C33.9071 8.5641 33.7771 10.0886 33.6861 11.6502ZM27.7811 9.11835C27.1817 8.53625 27.0377 7.52556 26.2788 7.09256C25.6294 7.0878 25.5369 7.60877 25.4192 8.10529C25.4865 8.78417 25.8774 9.15809 26.0628 9.7266C25.4638 9.97011 24.7827 10.1382 23.9158 10.1314C23.639 10.4785 23.0223 10.5033 23.0569 11.1435C23.2192 11.3306 23.2941 11.4702 23.5951 11.5486C23.8795 11.6237 24.3338 11.4923 24.6671 11.5486C25.3364 11.3697 25.9721 11.1591 26.7079 11.0426C27.2177 11.4386 27.4322 12.1131 27.7807 12.6629C28.1803 13.1638 28.2682 13.9589 29.391 13.7768C29.5173 13.5911 29.6721 13.4342 29.8204 13.2708C29.6394 12.1589 28.9122 11.5615 28.5324 10.6374C29.1231 10.5865 29.49 10.3247 30.0361 10.2323C30.539 10.1009 31.0012 9.92731 31.0019 9.3211C30.6438 7.93106 28.8096 9.05315 27.7811 9.11835ZM25.8494 11.4478C25.4116 11.9263 24.2362 12.2031 24.6675 13.1686C25.1801 13.4213 25.4602 12.9278 25.8494 12.7634C26.1586 12.4816 26.6305 12.3532 26.493 11.6498C26.268 11.5918 26.1867 11.3992 25.8494 11.4478ZM11.8931 11.5486C11.2242 11.9501 9.68166 12.4286 10.3887 13.4736C11.0763 13.514 11.3834 13.1947 11.6785 12.866C12.1843 12.7352 12.3939 12.3257 12.5368 11.8526C12.3633 11.7123 12.2733 11.494 11.8931 11.5486ZM14.7914 13.9792C14.7684 13.7327 14.498 13.5225 14.3616 13.372C14.1917 13.1849 14.0491 12.8775 13.7176 12.8663C13.3504 12.8218 13.3946 13.1689 13.1804 13.2712C13.2452 13.8176 13.6412 14.0523 13.8259 14.4863C14.1726 14.8008 14.2745 15.3445 14.8983 15.3978C14.9221 15.3183 14.9883 15.2803 15.1143 15.297C15.493 14.9101 15.1467 14.2489 14.7914 13.9792ZM22.2001 14.5872C22.1328 14.9638 21.7595 15.0507 21.8772 15.5999C21.9974 15.6209 22.0442 15.7116 22.0917 15.8026C22.6062 16.0108 23.0284 15.5476 23.3805 15.2963C23.7657 14.9842 24.1999 14.7196 24.238 14.0811C23.5965 13.3238 22.6868 14.2628 22.2001 14.5872ZM8.56496 14.182C7.98501 14.6486 7.10266 14.8283 7.0609 15.8026C7.47922 16.2686 8.10237 15.7979 8.45768 15.5999C8.72156 15.2087 9.19711 15.0151 9.20899 14.3841C9.01783 14.2948 8.93611 14.1012 8.56496 14.182ZM21.0179 16.2075C20.8166 16.127 20.6258 16.038 20.3731 16.0054C20.3562 16.1226 20.2043 16.1151 20.0517 16.1063C19.6672 16.4428 19.1387 16.776 18.7632 17.0178C18.7265 17.0422 18.6858 17.1849 18.6563 17.2205C18.6275 17.2531 18.4709 17.1866 18.44 17.2205C18.4 17.2687 18.3514 17.4844 18.3345 17.5238C18.2798 17.6539 18.197 17.7238 18.2279 17.929C18.5703 18.6388 19.5653 18.2068 19.9455 17.8284C20.3314 17.3492 21.163 17.2888 21.1244 16.4105C21.0416 16.3875 21.001 16.3256 21.0179 16.2075ZM5.02154 17.5238C5.23537 17.6257 5.19181 17.9718 5.55865 17.929C6.144 17.7398 6.61091 17.4375 6.63215 16.7138C5.9892 16.2 5.01686 16.7865 5.02154 17.5238ZM15.866 16.5114H15.6507C15.5272 16.6313 15.5287 16.87 15.5427 17.1186C15.8775 17.626 16.4942 18.5572 17.2599 18.0298C17.3938 17.4311 17.0255 17.3071 16.8308 17.0181C16.4611 16.8948 16.4719 16.4112 15.866 16.5114Z" fill="white"/>
</symbol><symbol id="all-quest" viewBox="0 0 26 30">
<path d="M23.0455 0H13.591C11.31 0 9.45459 1.96248 9.45459 4.37502V18.125C9.45459 18.47 9.71934 18.7501 10.0455 18.7501C10.3717 18.7501 10.6364 18.47 10.6364 18.125V4.37502C10.6364 2.65254 11.9624 1.25004 13.591 1.25004H20.683C20.3119 1.77252 20.0909 2.42127 20.0909 3.12504V21.25H15.9546C15.6284 21.25 15.3636 21.53 15.3636 21.875C15.3636 22.22 15.6284 22.5 15.9546 22.5H20.6818C21.008 22.5 21.2727 22.22 21.2727 21.875V3.12504C21.2727 2.09127 22.0681 1.25004 23.0455 1.25004C23.3716 1.25004 23.6364 0.970019 23.6364 0.625019C23.6364 0.280019 23.3716 0 23.0455 0Z" fill="white"/>
<path d="M18.3182 17.5H7.68183C5.40094 17.5 3.54545 19.4625 3.54545 21.875V25.625C3.54545 27.3475 2.21945 28.75 0.590927 28.75C0.264745 28.75 0 29.03 0 29.375C0 29.72 0.264745 30 0.590927 30H12.4091C14.69 30 16.5455 28.0375 16.5455 25.625V20.625C16.5455 19.5912 17.3408 18.75 18.3182 18.75C18.6444 18.75 18.9091 18.47 18.9091 18.125C18.9091 17.78 18.6444 17.5 18.3182 17.5ZM15.3637 20.625V25.625C15.3637 27.3474 14.0377 28.7499 12.4091 28.7499H3.48285C4.25105 27.9549 4.7273 26.8487 4.7273 25.625V21.875C4.7273 20.1525 6.0533 18.75 7.68183 18.75H15.9557C15.5846 19.2725 15.3637 19.9212 15.3637 20.625Z" fill="white"/>
<path d="M18.3181 17.5H17.1363C16.8102 17.5 16.5454 17.78 16.5454 18.125C16.5454 18.47 16.8102 18.75 17.1363 18.75H18.3181C19.2955 18.75 20.0909 19.5912 20.0909 20.625V21.875C20.0909 22.22 20.3556 22.5 20.6818 22.5C21.008 22.5 21.2727 22.22 21.2727 21.875V20.625C21.2727 18.9025 19.9467 17.5 18.3181 17.5Z" fill="white"/>
<path d="M23.0453 0C22.7192 0 22.4544 0.280019 22.4544 0.625019C22.4544 0.970019 22.7192 1.25004 23.0453 1.25004C24.0227 1.25004 24.8181 2.09127 24.8181 3.12504V3.75H20.6817C20.3556 3.75 20.0908 4.03002 20.0908 4.37502C20.0908 4.72002 20.3556 5.00004 20.6817 5.00004H25.409C25.7352 5.00004 25.9999 4.72002 25.9999 4.37502V3.12498C25.9999 1.4025 24.6739 0 23.0453 0Z" fill="white"/>
<path d="M18.3184 3.75H12.4093C12.0831 3.75 11.8184 4.03002 11.8184 4.37502C11.8184 4.72002 12.0831 5.00004 12.4093 5.00004H18.3184C18.6446 5.00004 18.9093 4.72002 18.9093 4.37502C18.9093 4.03002 18.6446 3.75 18.3184 3.75Z" fill="white"/>
<path d="M18.3184 7.5H12.4093C12.0831 7.5 11.8184 7.78002 11.8184 8.12502C11.8184 8.47002 12.0831 8.75004 12.4093 8.75004H18.3184C18.6446 8.75004 18.9093 8.47002 18.9093 8.12502C18.9093 7.78002 18.6446 7.5 18.3184 7.5Z" fill="white"/>
<path d="M18.3184 11.25H12.4093C12.0831 11.25 11.8184 11.53 11.8184 11.875C11.8184 12.22 12.0831 12.5 12.4093 12.5H18.3184C18.6446 12.5 18.9093 12.22 18.9093 11.875C18.9093 11.53 18.6446 11.25 18.3184 11.25Z" fill="white"/>
<path d="M18.3184 15H12.4093C12.0831 15 11.8184 15.28 11.8184 15.625C11.8184 15.97 12.0831 16.25 12.4093 16.25H18.3184C18.6446 16.25 18.9093 15.97 18.9093 15.625C18.9093 15.28 18.6446 15 18.3184 15Z" fill="white"/>
<path d="M13.591 21.25H6.50011C6.17393 21.25 5.90918 21.53 5.90918 21.875C5.90918 22.22 6.17393 22.5 6.50011 22.5H13.591C13.9172 22.5 14.1819 22.22 14.1819 21.875C14.1819 21.53 13.9172 21.25 13.591 21.25Z" fill="white"/>
<path d="M13.591 25H6.50011C6.17393 25 5.90918 25.28 5.90918 25.625C5.90918 25.97 6.17393 26.25 6.50011 26.25H13.591C13.9172 26.25 14.1819 25.97 14.1819 25.625C14.1819 25.28 13.9172 25 13.591 25Z" fill="white"/>
</symbol><symbol id="arrow" viewBox="0 0 5 7">
<path d="M0 7L0 1.27273L0 0L5 3.5L0 7Z" fill="white"/>
</symbol><symbol id="back" viewBox="0 0 8 12">
<path d="M7 1L1 6L7 11" stroke="white"/>
</symbol><symbol id="burger-close" viewBox="0 0 16 16">
<path d="M0.928955 15.1422L15.0711 1.00002" stroke="white" stroke-width="2"/>
<path d="M0.928955 1L15.0711 15.1421" stroke="white" stroke-width="2"/>
</symbol><symbol id="burger" viewBox="0 0 20 14">
<path d="M0 1H20" stroke="white" stroke-width="2"/>
<path d="M0 7H16" stroke="white" stroke-width="2"/>
<path d="M0 13H20" stroke="white" stroke-width="2"/>
</symbol><symbol id="clock" viewBox="0 0 20 20">
<path d="M10 -1.94285e-06C4.48653 -1.94285e-06 0 4.48652 0 10C0 15.5135 4.48653 20 10 20C15.5135 20 20 15.5135 20 10C20 4.48652 15.5135 -1.94285e-06 10 -1.94285e-06ZM10 1.57895C14.6601 1.57895 18.4211 5.33985 18.4211 10C18.4211 14.6601 14.6601 18.421 10 18.421C5.33987 18.421 1.57895 14.6601 1.57895 10C1.57895 5.33985 5.33987 1.57895 10 1.57895ZM10 2.89473C9.564 2.89473 9.21053 3.24821 9.21053 3.68421V10C9.21053 10.292 9.36963 10.546 9.60526 10.6826L14.6217 13.5773C14.9993 13.7953 15.481 13.6671 15.699 13.2895C15.9171 12.9119 15.7888 12.4302 15.4112 12.2122L10.7895 9.54771V3.68421C10.7895 3.24821 10.436 2.89473 10 2.89473Z" fill="white"/>
</symbol><symbol id="detective" viewBox="0 0 40 30">
<path d="M39.0228 9.74601L38.3731 8.34006H36.7972H26.2387H24.7957L24.0993 9.57759C23.9157 9.90378 23.4611 10.9026 23.1674 13.1618C22.8618 12.7642 22.5463 12.3414 22.2233 11.9082C20.3037 9.33514 18.128 6.41889 15.1252 4.64186C13.5587 3.71467 11.5106 2.92847 9.50636 2.48481C8.50711 2.26357 6.93846 2 5.13979 2H3.74784C1.68131 2 0 3.64635 0 5.66991C0 7.69348 1.68131 9.33983 3.74784 9.33983H5.23845C7.44583 9.33983 8.8243 9.92346 10.5059 11.5701C11.9021 12.9372 13.049 14.797 14.2632 16.766C16.283 20.0411 18.5722 23.7533 22.66 26.0883C24.8808 27.3568 27.1702 28 29.4642 28C31.0702 28 32.6687 27.6826 34.2154 27.0566C36.1485 26.2742 37.704 24.8937 38.7137 23.0643C39.5552 21.5398 40 19.7467 40 17.8787C40.0001 12.2948 39.2521 10.2421 39.0228 9.74601ZM12.9138 10.5942C12.6938 10.3473 12.4675 10.1081 12.2331 9.87856C10.0718 7.76223 8.06855 6.94774 5.23836 6.94774H3.74784C3.02715 6.94774 2.44288 6.37562 2.44288 5.66991C2.44288 4.96421 3.02715 4.39209 3.74784 4.39209H5.13979C6.82832 4.39209 8.28178 4.66623 8.96767 4.81803C10.9046 5.24678 12.6878 5.9944 13.8617 6.68919C14.4735 7.05133 15.0541 7.48093 15.6077 7.95637L12.9138 10.5942ZM33.2822 24.8459C32.0634 25.3392 30.786 25.6079 29.4642 25.6079C27.6755 25.6079 25.8056 25.1157 23.8908 24.022C19.181 21.3317 17.1423 16.4093 14.4118 12.5103L17.3297 9.65307C20.5986 13.2716 22.8952 17.9318 25.343 17.9318C25.343 12.3237 26.2387 10.7321 26.2387 10.7321H36.7972C36.7972 10.7321 37.5572 12.377 37.5572 17.8786C37.5572 20.62 36.3358 23.61 33.2822 24.8459Z" fill="white"/>
</symbol><symbol id="horror" viewBox="0 0 30 30">
<path d="M29.1211 7.08984C28.6357 7.08984 28.2422 7.48336 28.2422 7.96875V8.84766H26.4258V4.39453C26.4258 1.97139 24.4544 0 22.0312 0H7.96875C5.54561 0 3.57422 1.97139 3.57422 4.39453V8.84766H1.75781V7.96875C1.75781 7.48336 1.3643 7.08984 0.878906 7.08984C0.393516 7.08984 0 7.48336 0 7.96875C0 8.27771 0 14.6916 0 15C0 15.4854 0.393516 15.8789 0.878906 15.8789C1.3643 15.8789 1.75781 15.4854 1.75781 15V14.1211H3.57422C3.57422 14.5291 3.57422 18.1166 3.57422 18.5156C3.57422 24.8481 8.69982 30 15 30C21.3002 30 26.4258 24.8481 26.4258 18.5156V14.1211H28.2422V15C28.2422 15.4854 28.6357 15.8789 29.1211 15.8789C29.6065 15.8789 30 15.4854 30 15C30 14.691 30 8.27713 30 7.96875C30 7.48336 29.6065 7.08984 29.1211 7.08984ZM3.57422 12.3633H1.75781C1.75781 11.7272 1.75781 11.2416 1.75781 10.6055H3.57422V12.3633ZM24.668 18.5156C24.668 23.8788 20.3309 28.2422 15 28.2422C9.66908 28.2422 5.33203 23.8789 5.33203 18.5156C5.33203 18.4384 5.33203 9.07582 5.33203 8.69643C5.60713 8.79398 5.90285 8.8476 6.21094 8.8476C6.88576 8.8476 7.50187 8.59248 7.96875 8.17406C8.43563 8.59254 9.05174 8.8476 9.72656 8.8476C10.4014 8.8476 11.0175 8.59248 11.4844 8.17406C11.9513 8.59254 12.5674 8.8476 13.2422 8.8476C13.917 8.8476 14.5331 8.59248 15 8.17406C15.4669 8.59254 16.083 8.8476 16.7578 8.8476C17.4326 8.8476 18.0487 8.59248 18.5156 8.17406C18.9825 8.59254 19.5986 8.8476 20.2734 8.8476C20.9483 8.8476 21.5644 8.59248 22.0312 8.17406C22.4981 8.59254 23.1142 8.8476 23.7891 8.8476C24.0971 8.8476 24.3929 8.79398 24.668 8.69643V18.5156ZM24.668 6.21094C24.668 6.69557 24.2737 7.08984 23.7891 7.08984C23.3044 7.08984 22.9102 6.69557 22.9102 6.21094C22.9102 5.72555 22.5166 5.33203 22.0312 5.33203C21.5459 5.33203 21.1523 5.72555 21.1523 6.21094C21.1523 6.69557 20.7581 7.08984 20.2734 7.08984C19.7888 7.08984 19.3945 6.69557 19.3945 6.21094C19.3945 5.72555 19.001 5.33203 18.5156 5.33203C18.0302 5.33203 17.6367 5.72555 17.6367 6.21094C17.6367 6.69557 17.2424 7.08984 16.7578 7.08984C16.2732 7.08984 15.8789 6.69557 15.8789 6.21094C15.8789 5.72555 15.4854 5.33203 15 5.33203C14.5146 5.33203 14.1211 5.72555 14.1211 6.21094C14.1211 6.69557 13.7268 7.08984 13.2422 7.08984C12.7576 7.08984 12.3633 6.69557 12.3633 6.21094C12.3633 5.72555 11.9698 5.33203 11.4844 5.33203C10.999 5.33203 10.6055 5.72555 10.6055 6.21094C10.6055 6.69557 10.2112 7.08984 9.72656 7.08984C9.24193 7.08984 8.84766 6.69557 8.84766 6.21094C8.84766 5.72555 8.45414 5.33203 7.96875 5.33203C7.48336 5.33203 7.08984 5.72555 7.08984 6.21094C7.08984 6.69557 6.69557 7.08984 6.21094 7.08984C5.72631 7.08984 5.33203 6.69557 5.33203 6.21094V4.39453C5.33203 2.94064 6.51486 1.75781 7.96875 1.75781H22.0312C23.4851 1.75781 24.668 2.94064 24.668 4.39453V6.21094ZM28.2422 12.3633H26.4258V10.6055H28.2422C28.2422 11.2416 28.2422 11.7272 28.2422 12.3633Z" fill="white"/>
<path d="M22.9102 11.4844C22.9102 10.999 22.5166 10.6055 22.0312 10.6055C21.5459 10.6055 21.1523 10.999 21.1523 11.4844C21.1523 11.9691 20.7581 12.3633 20.2734 12.3633H17.4859C17.2512 12.3633 17.0304 12.2719 16.8645 12.1059C15.8364 11.0779 14.1636 11.0779 13.1355 12.1059C12.9696 12.2719 12.7488 12.3633 12.5141 12.3633H9.72656C9.24193 12.3633 8.84766 11.969 8.84766 11.4844C8.84766 10.999 8.45414 10.6055 7.96875 10.6055C7.48336 10.6055 7.08984 10.999 7.08984 11.4844C7.08984 11.9233 7.19824 12.3372 7.38879 12.7016C7.19238 13.1461 7.08984 13.6276 7.08984 14.1212C7.08984 16.0597 8.66695 17.6368 10.6055 17.6368C12.544 17.6368 14.1211 16.0597 14.1211 14.1212C14.1211 13.9469 14.108 13.7745 14.0829 13.6042C14.1867 13.5271 14.2854 13.4419 14.3785 13.3489C14.7212 13.0062 15.2788 13.0062 15.6214 13.3489C15.7145 13.4419 15.8133 13.5272 15.9171 13.6043C15.892 13.7745 15.8789 13.9469 15.8789 14.1212C15.8789 16.0597 17.456 17.6368 19.3945 17.6368C21.333 17.6368 22.9102 16.0597 22.9102 14.1212C22.9102 13.6276 22.8076 13.1461 22.6112 12.7017C22.8018 12.3373 22.9102 11.9234 22.9102 11.4844ZM10.6055 15.879C9.63621 15.879 8.84766 15.0904 8.84766 14.1212C8.84766 14.0712 8.85029 14.0216 8.85445 13.9723C9.12762 14.0683 9.421 14.1153 9.72656 14.1153H12.3633C12.3633 15.0845 11.5747 15.879 10.6055 15.879ZM19.3945 15.879C18.4253 15.879 17.6367 15.0904 17.6367 14.1212H20.2734C20.579 14.1212 20.8724 14.0683 21.1455 13.9723C21.1497 14.0216 21.1523 14.0712 21.1523 14.1212C21.1523 15.0904 20.3638 15.879 19.3945 15.879Z" fill="white"/>
<path d="M16.7578 17.6367C16.2724 17.6367 15.8789 18.0302 15.8789 18.5156V19.3945H14.1211V18.5156C14.1211 18.0302 13.7276 17.6367 13.2422 17.6367C12.7568 17.6367 12.3633 18.0302 12.3633 18.5156V20.2734C12.3633 20.7588 12.7568 21.1523 13.2422 21.1523H16.7578C17.2432 21.1523 17.6367 20.7588 17.6367 20.2734V18.5156C17.6367 18.0302 17.2432 17.6367 16.7578 17.6367Z" fill="white"/>
<path d="M18.5156 22.9688H11.4844C10.999 22.9688 10.6055 23.3623 10.6055 23.8477C10.6055 24.333 10.999 24.7266 11.4844 24.7266H18.5156C19.001 24.7266 19.3945 24.333 19.3945 23.8477C19.3945 23.3623 19.001 22.9688 18.5156 22.9688Z" fill="white"/>
</symbol><symbol id="instagram" viewBox="0 0 28 28">
<path d="M16.6797 14C16.6797 15.48 15.48 16.6797 14 16.6797C12.52 16.6797 11.3203 15.48 11.3203 14C11.3203 12.52 12.52 11.3203 14 11.3203C15.48 11.3203 16.6797 12.52 16.6797 14Z" fill="#C6C4C2"/>
<path d="M20.2668 9.25888C20.138 8.90982 19.9325 8.59387 19.6655 8.33453C19.4062 8.0675 19.0904 7.862 18.7411 7.73318C18.4579 7.62317 18.0323 7.49222 17.2486 7.45654C16.4007 7.41788 16.1465 7.40955 14 7.40955C11.8533 7.40955 11.5991 7.41766 10.7514 7.45633C9.96765 7.49222 9.5419 7.62317 9.25885 7.73318C8.90958 7.862 8.59363 8.0675 8.3345 8.33453C8.06747 8.59387 7.86197 8.90961 7.73294 9.25888C7.62292 9.54214 7.49197 9.9679 7.4563 10.7517C7.41763 11.5993 7.4093 11.8535 7.4093 14.0002C7.4093 16.1467 7.41763 16.4009 7.4563 17.2488C7.49197 18.0326 7.62292 18.4581 7.73294 18.7414C7.86197 19.0907 8.06726 19.4064 8.33429 19.6657C8.59363 19.9328 8.90936 20.1383 9.25864 20.2671C9.5419 20.3773 9.96765 20.5083 10.7514 20.5439C11.5991 20.5826 11.8531 20.5907 13.9998 20.5907C16.1467 20.5907 16.4009 20.5826 17.2484 20.5439C18.0321 20.5083 18.4579 20.3773 18.7411 20.2671C19.4423 19.9966 19.9964 19.4425 20.2668 18.7414C20.3769 18.4581 20.5078 18.0326 20.5437 17.2488C20.5824 16.4009 20.5905 16.1467 20.5905 14.0002C20.5905 11.8535 20.5824 11.5993 20.5437 10.7517C20.508 9.9679 20.3771 9.54214 20.2668 9.25888ZM14 18.1281C11.72 18.1281 9.87173 16.28 9.87173 14C9.87173 11.72 11.72 9.87198 14 9.87198C16.2798 9.87198 18.1281 11.72 18.1281 14C18.1281 16.28 16.2798 18.1281 14 18.1281ZM18.2913 10.6735C17.7585 10.6735 17.3265 10.2415 17.3265 9.70877C17.3265 9.17599 17.7585 8.74405 18.2913 8.74405C18.824 8.74405 19.256 9.17599 19.256 9.70877C19.2558 10.2415 18.824 10.6735 18.2913 10.6735Z" fill="#C6C4C2"/>
<path d="M14 0C6.2692 0 0 6.2692 0 14C0 21.7308 6.2692 28 14 28C21.7308 28 28 21.7308 28 14C28 6.2692 21.7308 0 14 0ZM21.9906 17.3144C21.9517 18.1701 21.8156 18.7544 21.6169 19.2658C21.1993 20.3457 20.3457 21.1993 19.2658 21.6169C18.7546 21.8156 18.1701 21.9515 17.3146 21.9906C16.4573 22.0297 16.1834 22.0391 14.0002 22.0391C11.8168 22.0391 11.5431 22.0297 10.6856 21.9906C9.83008 21.9515 9.24561 21.8156 8.73441 21.6169C8.19778 21.4151 7.71201 21.0987 7.31039 20.6896C6.90152 20.2882 6.58514 19.8022 6.38327 19.2658C6.1846 18.7546 6.04852 18.1701 6.00964 17.3146C5.97012 16.4571 5.96094 16.1832 5.96094 14C5.96094 11.8168 5.97012 11.5429 6.00943 10.6856C6.04831 9.82986 6.18417 9.24561 6.38284 8.73419C6.58472 8.19778 6.90131 7.71179 7.31039 7.31039C7.71179 6.90131 8.19778 6.58493 8.73419 6.38306C9.24561 6.18439 9.82986 6.04852 10.6856 6.00943C11.5429 5.97034 11.8168 5.96094 14 5.96094C16.1832 5.96094 16.4571 5.97034 17.3144 6.00964C18.1701 6.04852 18.7544 6.18439 19.2658 6.38284C19.8022 6.58472 20.2882 6.90131 20.6898 7.31039C21.0987 7.71201 21.4153 8.19778 21.6169 8.73419C21.8158 9.24561 21.9517 9.82986 21.9908 10.6856C22.0299 11.5429 22.0391 11.8168 22.0391 14C22.0391 16.1832 22.0299 16.4571 21.9906 17.3144Z" fill="#C6C4C2"/>
</symbol><symbol id="logo" viewBox="0 0 134 52">
<path d="M67.5064 21.5227V23.8353H56.1351V7.25H67.2962V9.5626H58.7503V14.2812H66.1521V16.4537H58.7503V21.5227H67.5064Z" fill="white"/>
<path d="M74.1768 24.0689C73.1962 24.0689 72.2155 23.9132 71.2348 23.6017C70.2697 23.2747 69.4369 22.8153 68.7364 22.2235L69.7638 20.5883C70.4954 21.1178 71.2192 21.5227 71.9353 21.803C72.6513 22.0678 73.383 22.2002 74.1301 22.2002C74.8929 22.2002 75.4922 22.0522 75.9281 21.7563C76.3795 21.4604 76.6052 21.04 76.6052 20.4949C76.6052 19.981 76.3561 19.6072 75.858 19.3736C75.3599 19.14 74.5816 18.8831 73.5231 18.6028C72.7603 18.4003 72.1065 18.2057 71.5617 18.0188C71.0169 17.8319 70.5732 17.6139 70.2308 17.3647C69.8883 17.1155 69.6393 16.8274 69.4836 16.5004C69.3279 16.1734 69.2501 15.7763 69.2501 15.3091C69.2501 14.6861 69.3668 14.1333 69.6003 13.6505C69.8494 13.1678 70.1841 12.7629 70.6044 12.4358C71.0402 12.0932 71.5461 11.8363 72.1221 11.665C72.698 11.4937 73.3207 11.408 73.99 11.408C74.9085 11.408 75.7646 11.5482 76.5585 11.8285C77.3524 12.1088 78.0607 12.5137 78.6833 13.0432L77.5859 14.5849C76.4495 13.6817 75.2431 13.2301 73.9667 13.2301C73.3129 13.2301 72.7603 13.3702 72.3089 13.6505C71.873 13.9153 71.6551 14.3435 71.6551 14.9353C71.6551 15.1845 71.7018 15.3947 71.7952 15.566C71.8886 15.7373 72.0365 15.8853 72.2388 16.0099C72.4568 16.1344 72.7292 16.2512 73.0561 16.3602C73.3985 16.4537 73.8188 16.5627 74.3169 16.6873C75.142 16.8897 75.8502 17.0922 76.4417 17.2946C77.0488 17.4971 77.547 17.7385 77.9361 18.0188C78.3253 18.2835 78.6133 18.6028 78.8001 18.9765C78.9869 19.3347 79.0802 19.7708 79.0802 20.2847C79.0802 21.4526 78.6366 22.3792 77.7493 23.0645C76.8776 23.7341 75.6868 24.0689 74.1768 24.0689Z" fill="white"/>
<path d="M80.5301 17.7151C80.5301 16.8586 80.678 16.0488 80.9737 15.2857C81.2695 14.5226 81.6898 13.853 82.2346 13.2768C82.795 12.7006 83.4644 12.249 84.2427 11.9219C85.021 11.5793 85.8927 11.408 86.8578 11.408C88.1187 11.408 89.2006 11.6883 90.1034 12.249C91.0218 12.794 91.7068 13.5259 92.1582 14.4448L89.6598 15.239C89.364 14.7251 88.9671 14.328 88.4689 14.0476C87.9708 13.7518 87.4182 13.6038 86.8111 13.6038C86.2974 13.6038 85.8149 13.705 85.3635 13.9075C84.9276 14.1099 84.5462 14.398 84.2193 14.7718C83.8924 15.13 83.6356 15.5582 83.4488 16.0566C83.262 16.5549 83.1686 17.1078 83.1686 17.7151C83.1686 18.3069 83.262 18.8597 83.4488 19.3736C83.6512 19.872 83.9158 20.308 84.2427 20.6818C84.5851 21.0555 84.9743 21.3514 85.4102 21.5694C85.8616 21.7719 86.3364 21.8731 86.8345 21.8731C87.1458 21.8731 87.4571 21.8342 87.7685 21.7563C88.0798 21.6629 88.36 21.5383 88.609 21.3826C88.8737 21.2268 89.0994 21.0477 89.2862 20.8453C89.4885 20.6428 89.6364 20.4248 89.7298 20.1912L92.2516 20.9387C91.8469 21.8575 91.1697 22.6128 90.2202 23.2046C89.2706 23.7808 88.1498 24.0689 86.8578 24.0689C85.9083 24.0689 85.0444 23.8976 84.266 23.555C83.4877 23.2124 82.8184 22.753 82.258 22.1768C81.7132 21.585 81.2851 20.9076 80.9737 20.1445C80.678 19.3814 80.5301 18.5716 80.5301 17.7151Z" fill="white"/>
<path d="M97.6125 24.0689C97.021 24.0689 96.4684 23.9755 95.9547 23.7886C95.4565 23.5862 95.0207 23.3136 94.6471 22.971C94.2891 22.6284 94.0011 22.2235 93.7832 21.7563C93.5808 21.2891 93.4796 20.783 93.4796 20.2379C93.4796 19.6617 93.6041 19.14 93.8532 18.6728C94.1023 18.2057 94.4525 17.8008 94.9039 17.4582C95.3709 17.1155 95.9157 16.8508 96.5384 16.6639C97.1766 16.477 97.8771 16.3836 98.6399 16.3836C99.2158 16.3836 99.784 16.4381 100.344 16.5471C100.905 16.6406 101.411 16.7729 101.862 16.9442V16.1033C101.862 15.2001 101.605 14.4993 101.092 14.0009C100.578 13.487 99.8385 13.2301 98.8734 13.2301C98.2196 13.2301 97.5736 13.3546 96.9353 13.6038C96.3127 13.8374 95.6667 14.18 94.9973 14.6316L94.2034 12.9965C95.7757 11.9375 97.4101 11.408 99.1069 11.408C100.788 11.408 102.096 11.8363 103.03 12.6928C103.964 13.5493 104.431 14.7796 104.431 16.3836V20.7986C104.431 21.3436 104.656 21.6239 105.108 21.6395V23.8353C104.859 23.882 104.641 23.9132 104.454 23.9288C104.283 23.9443 104.111 23.9521 103.94 23.9521C103.442 23.9521 103.053 23.8275 102.773 23.5784C102.508 23.3292 102.345 23.01 102.282 22.6206L102.212 21.8498C101.668 22.5661 100.99 23.119 100.181 23.5083C99.3871 23.882 98.5309 24.0689 97.6125 24.0689ZM98.313 22.1768C98.9356 22.1768 99.5194 22.0678 100.064 21.8498C100.625 21.6162 101.06 21.2969 101.372 20.892C101.699 20.6117 101.862 20.3158 101.862 20.0043V18.3925C101.426 18.2212 100.959 18.0889 100.461 17.9954C99.9786 17.902 99.5038 17.8553 99.0368 17.8553C98.1184 17.8553 97.3634 18.0577 96.7719 18.4626C96.1959 18.8519 95.908 19.3736 95.908 20.0277C95.908 20.6351 96.1337 21.149 96.5851 21.5694C97.0365 21.9743 97.6125 22.1768 98.313 22.1768Z" fill="white"/>
<path d="M114.481 24.0689C113.501 24.0689 112.637 23.8353 111.89 23.3681C111.142 22.9009 110.551 22.2936 110.115 21.5461V28.8109H107.547V11.6182H109.812V13.8141C110.279 13.0821 110.878 12.4981 111.609 12.0621C112.357 11.626 113.197 11.408 114.131 11.408C114.972 11.408 115.742 11.5793 116.443 11.9219C117.143 12.2645 117.75 12.7239 118.264 13.3001C118.778 13.8763 119.175 14.546 119.455 15.3091C119.751 16.0721 119.899 16.8742 119.899 17.7151C119.899 18.6028 119.766 19.4359 119.502 20.2146C119.237 20.9777 118.863 21.6473 118.381 22.2235C117.898 22.7841 117.322 23.2358 116.653 23.5784C115.999 23.9054 115.275 24.0689 114.481 24.0689ZM113.641 21.8731C114.186 21.8731 114.676 21.7563 115.112 21.5227C115.563 21.2891 115.945 20.9777 116.256 20.5883C116.583 20.199 116.832 19.7552 117.003 19.2568C117.174 18.7585 117.26 18.2446 117.26 17.7151C117.26 17.1545 117.159 16.625 116.956 16.1267C116.77 15.6283 116.505 15.1923 116.163 14.8185C115.836 14.4448 115.439 14.1489 114.972 13.9308C114.505 13.7128 113.999 13.6038 113.454 13.6038C113.127 13.6038 112.785 13.6661 112.427 13.7907C112.069 13.9153 111.734 14.0866 111.423 14.3046C111.111 14.5226 110.839 14.7796 110.605 15.0755C110.372 15.3558 110.208 15.6672 110.115 16.0099V19.2101C110.271 19.5839 110.473 19.9343 110.722 20.2613C110.971 20.5883 111.244 20.8687 111.539 21.1022C111.851 21.3358 112.185 21.5227 112.543 21.6629C112.901 21.803 113.267 21.8731 113.641 21.8731Z" fill="white"/>
<path d="M127.742 24.0689C126.793 24.0689 125.929 23.9054 125.151 23.5784C124.372 23.2358 123.703 22.7764 123.142 22.2002C122.598 21.6239 122.17 20.9543 121.858 20.1912C121.562 19.4281 121.415 18.6183 121.415 17.7618C121.415 16.9053 121.562 16.0955 121.858 15.3324C122.17 14.5538 122.598 13.8763 123.142 13.3001C123.703 12.7084 124.372 12.249 125.151 11.9219C125.929 11.5793 126.801 11.408 127.766 11.408C128.715 11.408 129.571 11.5793 130.334 11.9219C131.112 12.2645 131.774 12.7239 132.319 13.3001C132.864 13.8608 133.276 14.5226 133.556 15.2857C133.852 16.0332 134 16.8197 134 17.645C134 17.8319 133.992 18.011 133.977 18.1823C133.961 18.338 133.946 18.4704 133.93 18.5794H124.146C124.193 19.1245 124.318 19.615 124.52 20.0511C124.738 20.4871 125.01 20.8687 125.337 21.1957C125.68 21.5071 126.061 21.7485 126.481 21.9198C126.917 22.0911 127.369 22.1768 127.836 22.1768C128.178 22.1768 128.513 22.1379 128.84 22.06C129.182 21.9666 129.494 21.842 129.774 21.6862C130.054 21.5149 130.303 21.3125 130.521 21.0789C130.739 20.8453 130.91 20.5883 131.035 20.308L133.229 20.9387C132.809 21.8575 132.109 22.6128 131.128 23.2046C130.163 23.7808 129.034 24.0689 127.742 24.0689ZM131.455 16.8041C131.408 16.2902 131.276 15.8152 131.058 15.3791C130.856 14.9431 130.591 14.5771 130.264 14.2812C129.937 13.9698 129.556 13.7284 129.12 13.5571C128.684 13.3858 128.225 13.3001 127.742 13.3001C127.26 13.3001 126.801 13.3858 126.365 13.5571C125.944 13.7284 125.571 13.9698 125.244 14.2812C124.917 14.5771 124.652 14.9431 124.45 15.3791C124.248 15.8152 124.123 16.2902 124.076 16.8041H131.455Z" fill="white"/>
<path d="M56.1351 47.1949V30.6096H63.3501C64.0973 30.6096 64.7822 30.7653 65.4049 31.0768C66.0431 31.3883 66.5879 31.8009 67.0394 32.3149C67.4908 32.8132 67.841 33.3894 68.0901 34.0435C68.3547 34.682 68.487 35.336 68.487 36.0057C68.487 36.5663 68.4092 37.1036 68.2535 37.6175C68.0979 38.1314 67.8799 38.6064 67.5998 39.0424C67.3196 39.4785 66.9771 39.86 66.5724 40.1871C66.1677 40.4985 65.724 40.7321 65.2415 40.8878L69.1408 47.1949H66.1754L62.5796 41.4251H58.7503V47.1949H56.1351ZM58.7503 39.1125H63.3268C63.7004 39.1125 64.0351 39.0346 64.3308 38.8789C64.6421 38.7076 64.9068 38.4818 65.1247 38.2015C65.3426 37.9056 65.5139 37.5708 65.6384 37.197C65.7629 36.8233 65.8252 36.4261 65.8252 36.0057C65.8252 35.5852 65.7474 35.1881 65.5917 34.8143C65.4516 34.4406 65.257 34.1136 65.008 33.8332C64.7745 33.5529 64.4943 33.3349 64.1674 33.1792C63.856 33.0079 63.5292 32.9222 63.1867 32.9222H58.7503V39.1125Z" fill="white"/>
<path d="M76.3905 47.4285C75.4254 47.4285 74.5537 47.2572 73.7753 46.9146C73.0126 46.572 72.3588 46.1126 71.814 45.5364C71.2692 44.9602 70.8489 44.2906 70.5531 43.5275C70.2573 42.7488 70.1095 41.939 70.1095 41.0981C70.1095 40.2571 70.2573 39.4551 70.5531 38.692C70.8489 37.9134 71.2692 37.236 71.814 36.6597C72.3744 36.0835 73.0359 35.6241 73.7987 35.2815C74.577 34.9389 75.4409 34.7676 76.3905 34.7676C77.34 34.7676 78.1962 34.9389 78.9589 35.2815C79.7373 35.6241 80.3988 36.0835 80.9437 36.6597C81.504 37.236 81.9321 37.9134 82.2279 38.692C82.5236 39.4551 82.6715 40.2571 82.6715 41.0981C82.6715 41.939 82.5236 42.7488 82.2279 43.5275C81.9321 44.2906 81.504 44.9602 80.9437 45.5364C80.3988 46.1126 79.7373 46.572 78.9589 46.9146C78.1962 47.2572 77.34 47.4285 76.3905 47.4285ZM72.748 41.1214C72.748 41.7132 72.8414 42.2583 73.0282 42.7566C73.215 43.2549 73.4718 43.691 73.7987 44.0647C74.1256 44.4229 74.507 44.711 74.9428 44.9291C75.3942 45.1315 75.8768 45.2327 76.3905 45.2327C76.9042 45.2327 77.379 45.1315 77.8148 44.9291C78.2662 44.711 78.6554 44.4151 78.9823 44.0414C79.3092 43.6676 79.566 43.2316 79.7528 42.7332C79.9396 42.2349 80.033 41.6899 80.033 41.0981C80.033 40.5219 79.9396 39.9846 79.7528 39.4863C79.566 38.9723 79.3092 38.5285 78.9823 38.1548C78.6554 37.781 78.2662 37.4929 77.8148 37.2905C77.379 37.0724 76.9042 36.9634 76.3905 36.9634C75.8924 36.9634 75.4176 37.0724 74.9662 37.2905C74.5303 37.5085 74.1489 37.8044 73.822 38.1781C73.4951 38.5519 73.2305 38.9957 73.0282 39.5096C72.8414 40.008 72.748 40.5452 72.748 41.1214Z" fill="white"/>
<path d="M90.4367 47.4285C89.4716 47.4285 88.5999 47.2572 87.8215 46.9146C87.0588 46.572 86.405 46.1126 85.8602 45.5364C85.3154 44.9602 84.8951 44.2906 84.5993 43.5275C84.3036 42.7488 84.1557 41.939 84.1557 41.0981C84.1557 40.2571 84.3036 39.4551 84.5993 38.692C84.8951 37.9134 85.3154 37.236 85.8602 36.6597C86.4206 36.0835 87.0821 35.6241 87.8449 35.2815C88.6232 34.9389 89.4871 34.7676 90.4367 34.7676C91.3862 34.7676 92.2424 34.9389 93.0051 35.2815C93.7835 35.6241 94.445 36.0835 94.9899 36.6597C95.5502 37.236 95.9783 37.9134 96.2741 38.692C96.5698 39.4551 96.7177 40.2571 96.7177 41.0981C96.7177 41.939 96.5698 42.7488 96.2741 43.5275C95.9783 44.2906 95.5502 44.9602 94.9899 45.5364C94.445 46.1126 93.7835 46.572 93.0051 46.9146C92.2424 47.2572 91.3862 47.4285 90.4367 47.4285ZM86.7942 41.1214C86.7942 41.7132 86.8876 42.2583 87.0744 42.7566C87.2612 43.2549 87.518 43.691 87.8449 44.0647C88.1718 44.4229 88.5532 44.711 88.989 44.9291C89.4404 45.1315 89.923 45.2327 90.4367 45.2327C90.9504 45.2327 91.4252 45.1315 91.861 44.9291C92.3124 44.711 92.7016 44.4151 93.0285 44.0414C93.3554 43.6676 93.6122 43.2316 93.799 42.7332C93.9858 42.2349 94.0792 41.6899 94.0792 41.0981C94.0792 40.5219 93.9858 39.9846 93.799 39.4863C93.6122 38.9723 93.3554 38.5285 93.0285 38.1548C92.7016 37.781 92.3124 37.4929 91.861 37.2905C91.4252 37.0724 90.9504 36.9634 90.4367 36.9634C89.9386 36.9634 89.4638 37.0724 89.0124 37.2905C88.5765 37.5085 88.1951 37.8044 87.8682 38.1781C87.5414 38.5519 87.2767 38.9957 87.0744 39.5096C86.8876 40.008 86.7942 40.5452 86.7942 41.1214Z" fill="white"/>
<path d="M117.675 47.1949H115.107V40.3506C115.107 39.2137 114.92 38.3806 114.547 37.8511C114.173 37.3216 113.628 37.0569 112.912 37.0569C112.18 37.0569 111.511 37.3294 110.904 37.8744C110.313 38.4039 109.884 39.0969 109.62 39.9535V47.1949H107.051V40.3506C107.051 39.1982 106.865 38.365 106.491 37.8511C106.117 37.3216 105.58 37.0569 104.88 37.0569C104.148 37.0569 103.479 37.3216 102.872 37.8511C102.265 38.3806 101.829 39.0736 101.564 39.9301V47.1949H98.9958V34.9779H101.331V37.4306C101.813 36.5741 102.444 35.92 103.222 35.4684C104.016 35.0012 104.919 34.7676 105.931 34.7676C106.942 34.7676 107.736 35.0324 108.312 35.5618C108.904 36.0913 109.27 36.7532 109.41 37.5474C109.923 36.6442 110.569 35.959 111.348 35.4918C112.126 35.009 113.013 34.7676 114.01 34.7676C114.726 34.7676 115.317 34.9078 115.784 35.1881C116.267 35.4528 116.648 35.811 116.928 36.2626C117.208 36.7143 117.403 37.2437 117.512 37.8511C117.621 38.4429 117.675 39.0736 117.675 39.7432V47.1949Z" fill="white"/>
<rect x="46.0483" y="21.5356" width="21.5741" height="2.28794" fill="white"/>
<rect x="46.0554" y="30.5619" width="16.0214" height="2.28097" fill="white"/>
<path fill-rule="evenodd" clip-rule="evenodd" d="M28.9059 42.5L12.2888 33.8917L12.5764 33.3522L29.1935 41.9605L28.9059 42.5Z" fill="white"/>
<path fill-rule="evenodd" clip-rule="evenodd" d="M38.7833 34.0652V16.1533H39.4016V34.0652H38.7833Z" fill="white"/>
<path fill-rule="evenodd" clip-rule="evenodd" d="M38.4741 22.9307L29.1302 28.3991L28.8634 27.8377L38.1584 22.4067L38.4741 22.9307Z" fill="white"/>
<path fill-rule="evenodd" clip-rule="evenodd" d="M37.538 15.5626L28.357 10.331L16.8252 17.0268L25.8062 22.1771L37.538 15.5626ZM28.3541 9.62539L15.6014 17.0301L25.8035 22.8806L38.7833 15.5626L38.2471 15.2627L28.3541 9.62539Z" fill="white"/>
<path d="M12.3868 33.9267L12.1234 33.7743L11.9688 22.1189L4.23995 17.6243M12.3868 33.9267L22.5849 28.1296M12.3868 33.9267L22.5849 39.225M23.0984 27.8377V39.4115L22.5849 39.225M23.0984 27.8377L4.23995 17.0301V13.9676L4.70369 13.6629L25.8808 1.70271L46.7287 14.12V21.5078H47.4007L47.4253 13.7106L25.8814 1L4.37813 13.1444L3.62164 13.6415V38.7831L26.3454 50.9999L28.6632 49.7471V49.7591L29.1178 49.5014L29.3588 49.3711V49.3648L47.3459 38.8506L47.372 31.3571H46.7287V38.4975L29.2815 48.7055V42.535L42.0335 35.4537L28.8634 27.8377M23.0984 27.8377L22.5849 28.1296M28.8634 27.8377L28.7405 27.9085V49.0103L26.3446 50.3053L4.23995 38.4213V17.6243M28.8634 27.8377L29.1302 28.3991L38.4741 22.9307L38.1584 22.4067L28.8634 27.8377ZM4.23995 17.6243V17.3957M22.5849 28.1296V39.225M38.2471 15.2627L28.3541 9.62539L15.6014 17.0301L25.8035 22.8806L38.7833 15.5626L38.2471 15.2627ZM21.8646 27.8356L12.7319 33.027L12.5925 22.5218L21.8646 27.8356ZM40.827 35.4708L29.3588 41.7721V28.8234L40.827 35.4708ZM28.357 10.331L37.538 15.5626L25.8062 22.1771L16.8252 17.0268L28.357 10.331ZM12.2888 33.8917L28.9059 42.5L29.1935 41.9605L12.5764 33.3522L12.2888 33.8917ZM38.7833 16.1533V34.0652H39.4016V16.1533H38.7833Z" stroke="white" stroke-width="1.5"/>
</symbol><symbol id="mistic" viewBox="0 0 30 30">
<path d="M18.5156 7.08984C17.0617 7.08984 15.8789 8.27268 15.8789 9.72656C15.8789 11.1804 17.0617 12.3633 18.5156 12.3633C19.9695 12.3633 21.1523 11.1804 21.1523 9.72656C21.1523 8.27268 19.9695 7.08984 18.5156 7.08984ZM18.5156 10.6055C18.031 10.6055 17.6367 10.2112 17.6367 9.72656C17.6367 9.24193 18.031 8.84766 18.5156 8.84766C19.0003 8.84766 19.3945 9.24193 19.3945 9.72656C19.3945 10.2112 19.0003 10.6055 18.5156 10.6055Z" fill="white"/>
<path d="M11.4844 7.08984C10.0305 7.08984 8.84766 8.27268 8.84766 9.72656C8.84766 11.1804 10.0305 12.3633 11.4844 12.3633C12.9383 12.3633 14.1211 11.1804 14.1211 9.72656C14.1211 8.27268 12.9383 7.08984 11.4844 7.08984ZM11.4844 10.6055C10.9997 10.6055 10.6055 10.2112 10.6055 9.72656C10.6055 9.24193 10.9997 8.84766 11.4844 8.84766C11.969 8.84766 12.3633 9.24193 12.3633 9.72656C12.3633 10.2112 11.969 10.6055 11.4844 10.6055Z" fill="white"/>
<path d="M27.3633 14.1211H24.668V9.72656C24.668 4.3633 20.3309 0 15 0C9.66908 0 5.33203 4.3633 5.33203 9.72656V14.1211H2.63672C1.18283 14.1211 0 15.3039 0 16.7578V18.5156C0 19.9695 1.18283 21.1523 2.63672 21.1523C3.33721 21.1523 4.00477 20.883 4.51635 20.3939C4.71152 20.2073 4.87418 19.998 5.00156 19.7725L5.22891 19.8862L3.58822 28.9648C3.54187 29.2211 3.6116 29.4847 3.77865 29.6846C3.94564 29.8845 4.19268 30 4.45312 30H25.5469C25.8073 30 26.0544 29.8845 26.2213 29.6846C26.3884 29.4847 26.4581 29.2211 26.4118 28.9648L24.7711 19.8862L24.9984 19.7725C25.4464 20.5658 26.3276 21.1523 27.3633 21.1523C28.8172 21.1523 30 19.9695 30 18.5156V16.7578C30 15.3039 28.8172 14.1211 27.3633 14.1211ZM28.2422 18.5156C28.2422 19.0003 27.8479 19.3945 27.3633 19.3945C26.8639 19.3945 26.4258 18.9838 26.4258 18.5156C26.4258 18.211 26.2681 17.9281 26.0089 17.768C25.7498 17.6079 25.4262 17.5932 25.1538 17.7295C24.6142 17.9993 22.1576 19.2276 21.6382 19.4873C21.204 19.7044 21.0281 20.2323 21.2452 20.6665C21.4622 21.1007 21.9901 21.2766 22.4243 21.0595L23.1328 20.7053L24.4949 28.2422H21.1523V25.5469C21.1523 25.0615 20.7588 24.668 20.2734 24.668C19.788 24.668 19.3945 25.0615 19.3945 25.5469V28.2422H15.8789V23.7891C15.8789 23.3037 15.4854 22.9102 15 22.9102C14.5146 22.9102 14.1211 23.3037 14.1211 23.7891V28.2422H10.6055V25.5469C10.6055 25.0615 10.212 24.668 9.72656 24.668C9.24117 24.668 8.84766 25.0615 8.84766 25.5469V28.2422H5.50512L6.86719 20.7053L7.5757 21.0596C8.01006 21.2767 8.53787 21.1005 8.75484 20.6665C8.97193 20.2324 8.79598 19.7044 8.3618 19.4873C7.84154 19.2272 5.38477 17.9988 4.84617 17.7295C4.57365 17.5932 4.25004 17.6079 3.99105 17.768C3.73189 17.9281 3.57422 18.211 3.57422 18.5156C3.57422 18.9838 3.13611 19.3945 2.63672 19.3945C2.15209 19.3945 1.75781 19.0003 1.75781 18.5156V16.7578C1.75781 16.2732 2.15209 15.8789 2.63672 15.8789H7.96875C8.45414 15.8789 8.84766 15.4854 8.84766 15C8.84766 14.5146 8.45414 14.1211 7.96875 14.1211H7.08984V9.72656C7.08984 5.33256 10.6383 1.75781 15 1.75781C19.3617 1.75781 22.9102 5.33256 22.9102 9.72656V14.1211H22.0312C21.5459 14.1211 21.1523 14.5146 21.1523 15C21.1523 15.4854 21.5459 15.8789 22.0312 15.8789H27.3633C27.8479 15.8789 28.2422 16.2732 28.2422 16.7578V18.5156Z" fill="white"/>
<path d="M15 12.3633C13.5461 12.3633 12.3633 13.5461 12.3633 15V16.7578C12.3633 18.2117 13.5461 19.3945 15 19.3945C16.4539 19.3945 17.6367 18.2117 17.6367 16.7578V15C17.6367 13.5461 16.4539 12.3633 15 12.3633ZM15.8789 16.7578C15.8789 17.2424 15.4846 17.6367 15 17.6367C14.5154 17.6367 14.1211 17.2424 14.1211 16.7578V15C14.1211 14.5154 14.5154 14.1211 15 14.1211C15.4846 14.1211 15.8789 14.5154 15.8789 15V16.7578Z" fill="white"/>
</symbol><symbol id="person" viewBox="0 0 13 16">
<path d="M8.8924 10.1991H9.88084C10.9936 10.1991 12.081 11.0107 11.896 12.0545L11.6945 13.0439C11.4176 14.1957 10.7921 14.8993 9.67933 15H3.33351C2.22072 14.8993 1.62121 14.0222 1.31832 13.0439L1.11681 12.0545C0.871559 11.0418 2.01921 10.1991 3.13199 10.1991H4.09323M3.08666 4.35241C2.85894 4.35241 2.63143 4.54017 2.63143 4.77153V5.60959C2.63143 5.84076 2.83536 6.02889 3.08666 6.02889C3.08666 6.02889 3.7694 7.70482 4.22443 8.3336C4.50635 8.72322 4.90717 9.65849 6.50018 9.65849C8.09318 9.65849 8.4938 8.72322 8.77592 8.3336C9.23115 7.70482 9.9137 6.02889 9.9137 6.02889C10.1648 6.02889 10.3689 5.84076 10.3689 5.60959V4.77153C10.3689 4.54017 10.1648 4.35241 9.9137 4.35241V3.72382C9.9137 2.25718 9.01251 1 6.50018 1C3.99671 1 3.08666 2.25699 3.08666 3.72382V4.35241Z" stroke="white" stroke-miterlimit="10" stroke-linecap="round" stroke-linejoin="round"/>
</symbol><symbol id="pin" viewBox="0 0 16 21">
<path d="M8.00001 4.18766C7.31187 4.18445 6.63826 4.38526 6.06453 4.76464C5.4908 5.14403 5.04277 5.68491 4.7772 6.31876C4.51163 6.95261 4.44048 7.6509 4.57276 8.32516C4.70504 8.99943 5.03479 9.61931 5.52025 10.1063C6.0057 10.5933 6.62501 10.9254 7.2997 11.0606C7.97438 11.1958 8.67409 11.1281 9.31017 10.8659C9.94624 10.6037 10.4901 10.1589 10.8727 9.58784C11.2554 9.01678 11.4596 8.34517 11.4596 7.6581C11.4597 6.74048 11.0957 5.8602 10.4473 5.20984C9.79899 4.55947 8.91905 4.19194 8.00001 4.18766ZM8.00001 9.509C7.63269 9.51221 7.2727 9.40639 6.96572 9.20497C6.65874 9.00355 6.41861 8.71561 6.27581 8.3777C6.13301 8.03979 6.09398 7.66713 6.16367 7.30703C6.23335 6.94693 6.40862 6.61562 6.66722 6.35515C6.92582 6.09467 7.25609 5.91678 7.61613 5.84404C7.97616 5.7713 8.34972 5.80699 8.68941 5.94659C9.02909 6.08619 9.31957 6.32341 9.524 6.62813C9.72842 6.93285 9.83756 7.29134 9.83758 7.6581C9.83821 8.14659 9.6454 8.61553 9.30118 8.96268C8.95696 9.30983 8.48925 9.50704 8.00001 9.51131V9.509Z" fill="#F2890F"/>
<path d="M8.00002 -3.08902e-08C3.80814 -3.08902e-08 0.299847 3.35707 0.0125101 7.63496C-0.0959796 9.60486 0.503931 11.5487 1.70409 13.1159L7.3512 20.6745C7.4267 20.7756 7.52477 20.8576 7.63761 20.9141C7.75045 20.9706 7.87494 21 8.00118 21C8.12742 21 8.25191 20.9706 8.36475 20.9141C8.47759 20.8576 8.57566 20.7756 8.65117 20.6745L14.2959 13.1206C15.4959 11.5532 16.0958 9.60946 15.9875 7.63959C15.7002 3.35707 12.1919 -3.08902e-08 8.00002 -3.08902e-08ZM12.996 12.1512L8.00002 18.8236L3.00406 12.1512C2.03779 10.8954 1.55143 9.33682 1.63226 7.75527C1.83386 4.74756 4.27159 1.62648 8.00234 1.62648C11.7331 1.62648 14.1662 4.73599 14.3678 7.74833C14.4503 9.33222 13.9638 10.8935 12.996 12.1512Z" fill="#F2890F"/>
</symbol><symbol id="puzzle" viewBox="0 0 16 16">
<path d="M10.6382 3.88374L10.6371 3.88544C10.5535 4.02755 10.5777 4.19493 10.6471 4.31761C10.7166 4.44053 10.8479 4.54783 11.015 4.54783H14.2522V7.26258C14.0032 7.16271 13.735 7.09784 13.4457 7.09784C12.1751 7.09784 11.1435 8.12939 11.1435 9.4C11.1435 10.6706 12.1751 11.7022 13.4457 11.7022C13.7357 11.7022 14.0041 11.6334 14.2522 11.5325V14.2522H4.54783V11.015C4.54783 10.849 4.44314 10.7177 4.32164 10.6471C4.20057 10.5768 4.03538 10.5509 3.89335 10.6303L3.89333 10.6302L3.8904 10.632C3.67729 10.7588 3.44019 10.8293 3.17717 10.8293C2.38607 10.8293 1.74783 10.196 1.74783 9.4C1.74783 8.60397 2.38607 7.97067 3.17717 7.97067C3.44189 7.97067 3.67876 8.03656 3.8904 8.16253L3.89037 8.16257L3.89335 8.16424C4.03531 8.24357 4.20029 8.21765 4.32105 8.14839C4.44184 8.07912 4.54783 7.94939 4.54783 7.78504V4.54783H7.78504C7.95206 4.54783 8.08344 4.44053 8.15292 4.31761C8.22226 4.19492 8.24645 4.02755 8.16286 3.88544L8.16287 3.88543L8.16184 3.88374C8.03667 3.67846 7.97067 3.44214 7.97067 3.17717C7.97067 2.38607 8.60397 1.74783 9.4 1.74783C10.196 1.74783 10.8293 2.38607 10.8293 3.17717C10.8293 3.44214 10.7633 3.67846 10.6382 3.88374ZM9.4 0.875C8.12918 0.875 7.09784 1.91227 7.09784 3.17717C7.09784 3.35229 7.12067 3.51686 7.15842 3.675H4.10866C3.99013 3.675 3.88247 3.72954 3.806 3.806C3.72954 3.88247 3.675 3.99013 3.675 4.10866V7.15842C3.51686 7.12067 3.35229 7.09784 3.17717 7.09784C1.91227 7.09784 0.875 8.12918 0.875 9.4C0.875 10.6708 1.91227 11.7022 3.17717 11.7022C3.35229 11.7022 3.51686 11.6793 3.675 11.6416V14.6913C3.675 14.8099 3.72954 14.9175 3.806 14.994C3.88247 15.0705 3.99013 15.125 4.10866 15.125H14.6913C14.8099 15.125 14.9175 15.0705 14.994 14.994C15.0705 14.9175 15.125 14.8099 15.125 14.6913V10.789C15.125 10.6209 15.0266 10.4591 14.8694 10.3884C14.7143 10.3186 14.523 10.3484 14.3975 10.4653C14.1442 10.6929 13.8103 10.8293 13.4457 10.8293C12.6494 10.8293 12.0163 10.1963 12.0163 9.4C12.0163 8.60368 12.6494 7.97067 13.4457 7.97067C13.8115 7.97067 14.1451 8.10245 14.3974 8.32918C14.5224 8.44556 14.7081 8.47623 14.8639 8.40612C15.0164 8.33748 15.125 8.17872 15.125 8.01102V4.10866C15.125 3.99013 15.0705 3.88247 14.994 3.806C14.9175 3.72954 14.8099 3.675 14.6913 3.675H11.6416C11.6793 3.51686 11.7022 3.35229 11.7022 3.17717C11.7022 1.91227 10.6708 0.875 9.4 0.875Z" fill="white" stroke="white" stroke-width="0.25"/>
</symbol><symbol id="sci-fi" viewBox="0 0 28 30">
<path d="M14 8.07756e-06C13.0654 8.07756e-06 12.185 0.379865 11.4231 0.98215C11.0776 0.817829 10.6944 0.714293 10.2855 0.714293C8.85829 0.714293 7.68537 1.84204 7.68537 3.21429C7.68537 3.98047 8.05417 4.67393 8.6256 5.13393C8.55042 5.32101 8.47573 5.50822 8.40505 5.70315C7.40219 5.5219 6.45274 5.41872 5.57275 5.41293C3.30164 5.39793 1.38862 6.00108 0.488547 7.5C-0.0655475 8.42275 -0.121963 9.53118 0.186744 10.6473C0.495452 11.7635 1.147 12.9219 2.0672 14.096C2.30329 14.3972 2.56201 14.6976 2.83332 15C2.56195 15.3028 2.30333 15.6027 2.0672 15.904C1.147 17.0781 0.495452 18.2254 0.186744 19.3415C-0.107124 20.404 -0.0633039 21.4701 0.4189 22.3661C0.316265 22.6336 0.256391 22.9141 0.256391 23.2143C0.256391 24.5865 1.42931 25.7143 2.85653 25.7143C3.76739 25.7143 4.57388 25.2538 5.03879 24.5647C6.06595 24.607 7.19695 24.5139 8.40505 24.2969C8.54232 24.6751 8.69223 25.0312 8.84615 25.3795C9.44411 26.7322 10.1654 27.846 11.0168 28.6607C11.8682 29.4754 12.892 30 14 30C15.108 30 16.1318 29.4754 16.9832 28.6607C17.8346 27.846 18.5559 26.7322 19.1539 25.3795C19.3078 25.0312 19.4577 24.6751 19.5949 24.2969C19.9917 24.3688 20.3766 24.4306 20.7557 24.4754C21.0132 25.5939 22.0498 26.4397 23.2862 26.4397C24.7134 26.4397 25.8864 25.312 25.8864 23.9397C25.8864 23.9358 25.8864 23.9326 25.8864 23.9287C26.5658 23.5958 27.1386 23.121 27.5115 22.5001C28.0655 21.5773 28.122 20.4578 27.8133 19.3416C27.5045 18.2254 26.853 17.0782 25.9328 15.9041C25.6967 15.6028 25.438 15.3028 25.1667 15.0001C25.438 14.6977 25.6967 14.3973 25.9328 14.0961C26.853 12.922 27.5045 11.7635 27.8133 10.6474C28.122 9.53125 28.0655 8.42282 27.5115 7.50007C26.6114 6.00114 24.6984 5.39814 22.4272 5.413C21.5473 5.41871 20.5978 5.52197 19.5949 5.70322C19.4577 5.32468 19.3078 4.95764 19.1539 4.60942C18.5559 3.25664 17.8346 2.14286 16.9832 1.32822C16.1318 0.51347 15.108 8.07756e-06 14 8.07756e-06ZM14 1.42858C14.6357 1.42858 15.2789 1.71265 15.9385 2.34376C16.5981 2.97486 17.2394 3.94615 17.7841 5.17858C17.9014 5.44383 18.013 5.7274 18.1208 6.01565C16.8001 6.34658 15.4175 6.81743 14 7.41072C12.5825 6.81743 11.1999 6.34658 9.87924 6.01565C9.91945 5.90812 9.96536 5.80751 10.0069 5.70315C10.0977 5.71244 10.1923 5.71423 10.2855 5.71423C11.7127 5.71423 12.8857 4.58648 12.8857 3.21423C12.8857 2.75823 12.7628 2.33383 12.5374 1.96423C13.0327 1.6058 13.518 1.42851 14 1.42851V1.42858ZM10.2855 2.14286C10.9097 2.14286 11.3999 2.61411 11.3999 3.21429C11.3999 3.81447 10.9097 4.28572 10.2855 4.28572C9.66128 4.28572 9.17116 3.81447 9.17116 3.21429C9.17116 2.61411 9.66128 2.14286 10.2855 2.14286ZM5.57275 6.8415C6.30122 6.84614 7.11054 6.92461 7.97556 7.0759C7.61535 8.34015 7.33661 9.72882 7.16302 11.2054C5.92162 12.0883 4.81293 13.0079 3.8548 13.9397C3.64828 13.7052 3.4438 13.4675 3.26281 13.2366C2.42442 12.1669 1.86524 11.1436 1.62611 10.279C1.38698 9.41439 1.44763 8.7435 1.7654 8.21429C2.28212 7.35379 3.57929 6.82843 5.57275 6.8415ZM22.4272 6.8415C24.4207 6.82864 25.7179 7.35379 26.2346 8.21429C26.5524 8.7435 26.613 9.41439 26.3739 10.279C26.1348 11.1436 25.5756 12.1669 24.7372 13.2366C24.5562 13.4675 24.3517 13.7052 24.1452 13.9397C23.1851 13.006 22.0698 12.0899 20.8254 11.2054C20.6516 9.73036 20.3841 8.33911 20.0244 7.0759C20.8895 6.92461 21.6988 6.84629 22.4272 6.8415ZM9.43814 7.39958C10.3109 7.61719 11.2258 7.89183 12.166 8.23661C11.6011 8.51265 11.0376 8.80389 10.4712 9.11829C9.90043 9.43518 9.35795 9.77629 8.82293 10.1116C8.9822 9.14797 9.19588 8.24154 9.43814 7.39958ZM18.5735 7.39958C18.8144 8.23715 19.0183 9.14264 19.1771 10.1004C18.6437 9.76632 18.0977 9.43411 17.5288 9.11829C16.9624 8.80389 16.3989 8.51265 15.834 8.23661C16.778 7.8904 17.6975 7.61754 18.5735 7.39958ZM14 8.98436C14.9198 9.38936 15.8549 9.84036 16.7859 10.3571C17.7177 10.8744 18.5955 11.423 19.4208 11.9866C19.5157 12.9586 19.5717 13.9618 19.5717 15C19.5717 16.0342 19.515 17.0448 19.4208 18.0134C18.5953 18.5761 17.718 19.1143 16.7859 19.6317C15.8515 20.1504 14.9118 20.6101 13.9884 21.0156C13.072 20.6105 12.1421 20.1468 11.2141 19.6317C10.282 19.1143 9.40471 18.5761 8.57917 18.0134C8.48498 17.0448 8.42827 16.0342 8.42827 15C8.42827 13.9666 8.48517 12.9659 8.57917 11.9978C9.40611 11.4327 10.2802 10.8756 11.2141 10.3571C12.1451 9.84036 13.0802 9.38936 14 8.98436ZM14 12.5C12.5728 12.5 11.3999 13.6277 11.3999 15C11.3999 16.3722 12.5728 17.5 14 17.5C15.4272 17.5 16.6001 16.3722 16.6001 15C16.6001 13.6277 15.4272 12.5 14 12.5ZM7.00051 13.1473C6.96675 13.7577 6.94247 14.3692 6.94247 15C6.94247 15.6273 6.96699 16.246 7.00051 16.8527C6.21757 16.242 5.4984 15.619 4.86468 15C5.49903 14.3791 6.21665 13.7601 7.00051 13.1473ZM20.9995 13.1473C21.7833 13.7601 22.501 14.3791 23.1353 15C22.5016 15.619 21.7824 16.242 20.9995 16.8527C21.033 16.246 21.0575 15.6273 21.0575 15C21.0575 14.3689 21.0334 13.7581 20.9995 13.1473ZM3.8548 16.0714C4.81372 17.0021 5.93209 17.9131 7.17463 18.7946C7.34776 20.2642 7.60573 21.6538 7.96395 22.9129C7.05243 23.0727 6.21371 23.1488 5.45668 23.1473C5.41771 21.8069 4.25948 20.7143 2.85653 20.7143C2.3687 20.7143 1.91337 20.8544 1.52164 21.0826C1.45732 20.6876 1.48199 20.2309 1.62611 19.7098C1.86524 18.8452 2.42442 17.8331 3.26281 16.7634C3.44357 16.5328 3.64859 16.3059 3.8548 16.0714ZM24.1452 16.0714C24.3514 16.3059 24.5564 16.5328 24.7372 16.7634C25.5756 17.8331 26.1348 18.8452 26.3739 19.7098C26.613 20.5744 26.5524 21.2565 26.2346 21.7857C26.0546 22.0854 25.7942 22.34 25.4337 22.5446C24.9635 21.8862 24.1726 21.4397 23.2862 21.4397C22.1843 21.4397 21.2361 22.12 20.8602 23.058C20.587 23.0241 20.311 22.9743 20.0244 22.9241C20.3845 21.6614 20.6516 20.2693 20.8254 18.7946C22.0679 17.9131 23.1863 17.0021 24.1452 16.0714ZM8.82293 19.8996C9.35629 20.2332 9.90234 20.5547 10.4712 20.8705C11.0375 21.1849 11.6011 21.4875 12.166 21.7634C11.2225 22.1086 10.3017 22.3827 9.42653 22.6004C9.18543 21.762 8.98172 20.8584 8.82293 19.8996ZM19.1771 19.8996C19.0176 20.8623 18.8159 21.7703 18.5735 22.6116C17.6975 22.3931 16.7779 22.1108 15.834 21.7634C16.3992 21.4868 16.9615 21.1854 17.5288 20.8705C18.0977 20.5547 18.6437 20.2332 19.1771 19.8996ZM2.85653 22.1429C3.48076 22.1429 3.97088 22.6141 3.97088 23.2143C3.97088 23.8145 3.48076 24.2857 2.85653 24.2857C2.2323 24.2857 1.74219 23.8145 1.74219 23.2143C1.74219 22.6141 2.2323 22.1429 2.85653 22.1429ZM14.0116 22.5893C15.4269 23.1806 16.8144 23.6428 18.1324 23.9732C18.023 24.2665 17.9033 24.5519 17.7841 24.8214C17.2394 26.0539 16.5981 27.0251 15.9385 27.6562C15.2789 28.2874 14.6357 28.5714 14 28.5714C13.3643 28.5714 12.7211 28.2874 12.0615 27.6562C11.4019 27.0251 10.7606 26.0539 10.2159 24.8214C10.0986 24.5562 9.98703 24.2726 9.87924 23.9844C11.2019 23.6528 12.5916 23.1856 14.0116 22.5893ZM23.2862 22.8683C23.9105 22.8683 24.4006 23.3396 24.4006 23.9397C24.4006 24.5399 23.9105 25.0112 23.2862 25.0112C22.662 25.0112 22.1719 24.5399 22.1719 23.9397C22.1719 23.3396 22.662 22.8683 23.2862 22.8683Z" fill="white"/>
</symbol><symbol id="star" viewBox="0 0 16 16">
<path fill-rule="evenodd" clip-rule="evenodd" d="M8 2L6.33333 6.8H2L5.66667 9.88571L4.33333 14L8 11.2567L11.6667 14L10.3333 9.88571L14 6.8H9.66667L8 2Z" fill="#F2890F"/>
</symbol><symbol id="target" viewBox="0 0 20 20">
<path d="M10 20C4.48593 20 0 15.5141 0 10.0001C0 4.48599 4.48593 0 10 0C15.5141 0 20 4.48599 20 10.0001C20 15.5141 15.5141 20 10 20ZM10.6802 1.38646V5.51266C10.6802 5.88808 10.3757 6.19259 10 6.19259C9.62434 6.19259 9.31976 5.88815 9.31976 5.51266V1.38646C5.09698 1.71697 1.71734 5.09704 1.38709 9.32007H5.51063C5.88622 9.32007 6.19087 9.62451 6.19087 10C6.19087 10.3755 5.88622 10.6799 5.51063 10.6799H1.38709C1.71734 14.903 5.09698 18.283 9.31976 18.6135V14.4873C9.31976 14.1119 9.62434 13.8074 10 13.8074C10.3757 13.8074 10.6802 14.1119 10.6802 14.4873V18.6135C14.9031 18.283 18.2827 14.903 18.6129 10.6799H14.4894C14.1138 10.6799 13.8091 10.3755 13.8091 10C13.8091 9.62451 14.1137 9.32007 14.4894 9.32007H18.6129C18.2826 5.09697 14.903 1.71697 10.6802 1.38646Z" fill="#F2890F"/>
</symbol><symbol id="tick" viewBox="0 0 8 8">
<path d="M1 5L3 7L7 1" stroke="white" stroke-width="2" stroke-linecap="round" stroke-linejoin="round"/>
</symbol><symbol id="vk" viewBox="0 0 28 28">
<path fill-rule="evenodd" clip-rule="evenodd" d="M14 28C21.732 28 28 21.732 28 14C28 6.26801 21.732 0 14 0C6.26801 0 0 6.26801 0 14C0 21.732 6.26801 28 14 28ZM19.9085 15.7806C19.7608 15.6459 19.6132 15.5111 19.4676 15.3741C18.9719 14.908 18.9402 14.6375 19.3393 14.1008C19.5705 13.788 19.8114 13.4819 20.0522 13.1758C20.2638 12.9069 20.4753 12.638 20.6802 12.3647C20.6957 12.3441 20.7112 12.3234 20.7267 12.3027C21.1214 11.7762 21.5172 11.2482 21.7245 10.6192C21.8612 10.2027 21.7399 10.0191 21.2973 9.94642C21.2218 9.93398 21.143 9.93288 21.0652 9.93288L18.4384 9.93062C18.1148 9.92459 17.9356 10.0609 17.8215 10.3378C17.6674 10.7111 17.5084 11.0846 17.3235 11.4443C16.9069 12.2623 16.4405 13.0523 15.7871 13.7208C15.7777 13.7303 15.7683 13.74 15.7589 13.7497C15.6215 13.8911 15.4677 14.0494 15.242 13.9783C14.9406 13.8715 14.8523 13.3928 14.857 13.2315L14.8546 10.3095C14.7958 9.89277 14.7004 9.70673 14.2707 9.625H11.5415C11.1776 9.625 10.995 9.76133 10.8009 9.98034C10.6892 10.1073 10.6548 10.1901 10.8856 10.2323C11.3379 10.3149 11.5933 10.5978 11.6605 11.0347C11.7699 11.7348 11.7617 12.4361 11.6993 13.1386C11.6804 13.3428 11.6439 13.5482 11.5602 13.7388C11.4285 14.0395 11.2153 14.1008 10.9352 13.916C10.6821 13.749 10.5043 13.5119 10.33 13.2747C9.67534 12.3839 9.1538 11.4228 8.72757 10.4126C8.60394 10.1211 8.39197 9.94406 8.07178 9.93955C7.28304 9.9269 6.49534 9.92585 5.70754 9.9406C5.23311 9.94847 5.09183 10.1709 5.28501 10.5854C6.14324 12.4249 7.09814 14.2143 8.34507 15.8427C8.98551 16.679 9.7213 17.4177 10.6702 17.941C11.7464 18.5345 12.9049 18.7126 14.1257 18.6571C14.6969 18.632 14.8688 18.4879 14.8946 17.9398C14.9135 17.5641 14.957 17.1909 15.1489 16.8538C15.3373 16.5224 15.6234 16.4593 15.9531 16.6655C16.1179 16.7687 16.2558 16.8992 16.3876 17.0379C16.4916 17.1476 16.5943 17.2584 16.697 17.3691C16.912 17.6009 17.1269 17.8327 17.3531 18.0548C17.7709 18.4652 18.2678 18.7069 18.8906 18.6571L21.3055 18.6582C21.694 18.6332 21.8965 18.1737 21.6729 17.7561C21.5151 17.4623 21.3089 17.2011 21.091 16.948C20.7284 16.5291 20.3186 16.155 19.9085 15.7806Z" fill="#C6C4C2"/>
</symbol></svg>